<svg version="1.2" baseProfile="tiny-ps" xmlns="http://www.w3.org/2000/svg" viewBox="0 0 656 143" width="656" height="143">
	<title>Logo with black text in transparent background-svg</title>
	<defs>
		<linearGradient id="grd1" gradientUnits="userSpaceOnUse"  x1="4.013" y1="72.238" x2="137.716" y2="72.238">
			<stop offset="0" stop-color="#0082fa"  />
			<stop offset="1" stop-color="#00f2fe"  />
		</linearGradient>
		<linearGradient id="grd2" gradientUnits="userSpaceOnUse"  x1="4.013" y1="72.238" x2="137.716" y2="72.238">
			<stop offset="0" stop-color="#0082fa"  />
			<stop offset="1" stop-color="#00f2fe"  />
		</linearGradient>
	</defs>
	<style>
		tspan { white-space:pre }
		.shp0 { fill: #000000 } 
		.shp1 { fill: url(#grd1) } 
		.shp2 { fill: url(#grd2) } 
	</style>
	<path id="Layer" class="shp0" d="M183.83 106.01L183.83 50.85C183.83 45.19 188.42 40.6 194.09 40.6L194.84 40.6L194.84 106.01L183.83 106.01Z" />
	<path id="Layer" class="shp0" d="M210.8 106.01L210.8 40.6L222.39 40.6L248.91 88.07L248.91 40.6L249.19 40.6C254.85 40.6 259.45 45.19 259.45 50.85L259.45 106.01L247.86 106.01L221.33 58.54L221.33 106.01L210.8 106.01Z" />
	<path id="Layer" class="shp0" d="M294.15 107.6C287.32 107.6 281.99 105.52 278.16 101.34C274.33 97.17 272.41 91.62 272.41 84.71L283.42 84.71C283.42 88.76 284.32 92 286.11 94.43C287.96 96.79 290.64 97.98 294.15 97.98C297.66 97.98 300.34 96.79 302.19 94.43C304.11 92 305.06 88.79 305.06 84.8L305.06 50.85C305.06 45.19 309.66 40.6 315.32 40.6L316.08 40.6L316.08 84.8C316.08 91.72 314.13 97.26 310.24 101.44C306.41 105.55 301.04 107.6 294.15 107.6Z" />
	<path id="Layer" class="shp0" d="M331.03 40.6L369.72 40.6C369.72 45.91 365.41 50.22 360.09 50.22L342.05 50.22L342.05 68.73L369.72 68.73L369.72 78.35L342.05 78.35L342.05 96.39L369.72 96.39L369.72 106.01L331.03 106.01L331.03 68.73L331.03 50.22L331.03 40.6Z" />
	<path id="Layer" class="shp0" d="M610.55 40.6L649.23 40.6C649.23 45.91 644.92 50.22 639.61 50.22L621.56 50.22L621.56 68.73L649.23 68.73L649.23 78.35L621.56 78.35L621.56 96.39L649.23 96.39L649.23 106.01L610.55 106.01L610.55 68.73L610.55 50.22L610.55 40.6Z" />
	<path id="Layer" class="shp0" d="M414.74 107.6C405.19 107.6 397.63 104.43 392.05 98.07C386.48 91.71 383.69 83.46 383.69 73.3C383.69 63.15 386.48 54.89 392.05 48.54C397.63 42.18 405.19 39 414.74 39C422.76 39 429.35 41.25 434.53 45.73C439.7 50.16 442.74 55.92 443.65 63.02L441.19 63.02C436.36 63.02 432.5 59.37 429.64 55.48C428.81 54.36 427.85 53.35 426.77 52.46C423.7 49.91 419.71 48.63 414.82 48.63C408.29 48.63 403.17 50.87 399.47 55.36C395.83 59.78 394.01 65.76 394.01 73.3C394.01 80.84 395.83 86.85 399.47 91.34C403.17 95.76 408.29 97.98 414.82 97.98C419.71 97.98 423.7 96.7 426.77 94.14C427.85 93.26 428.81 92.25 429.64 91.13C432.5 87.24 436.36 83.58 441.19 83.58L443.65 83.58C442.74 90.69 439.7 96.48 434.53 100.97C429.35 105.39 422.76 107.6 414.74 107.6Z" />
	<path id="Layer" class="shp0" d="M472.09 106.01L472.09 50.69L452.65 50.69L452.65 50.69C452.65 45.12 457.17 40.6 462.74 40.6L502.63 40.6L502.63 50.69L483.1 50.69L483.1 106.01L472.09 106.01Z" />
	<path id="Layer" class="shp0" d="M516.61 106.01L516.61 50.85C516.61 45.19 521.2 40.6 526.87 40.6L527.62 40.6L527.62 106.01L516.61 106.01Z" />
	<path id="Layer" class="shp0" d="M563.81 106.01L541.59 40.6L546.07 40.6C550.53 40.6 554.48 43.48 555.84 47.73L569.07 89.1L582.3 47.73C583.66 43.48 587.62 40.6 592.08 40.6L596.56 40.6L574.34 106.01L563.81 106.01Z" />
	<path id="Layer" class="shp1" d="M20.22 28.5C21.05 27.45 21.93 26.45 22.81 25.44C22.85 25.39 22.94 25.38 22.98 25.33C23.06 25.23 23.19 25.17 23.27 25.08L23.35 24.98C23.96 24.41 24.61 23.79 25.37 23.25C28.03 21.23 30.79 19.7 33.7 18.69C43.05 15.41 53.45 17.43 61.6 25.13C72.99 35.81 71.97 53 62.88 64.43C51.39 81.47 31.65 105.25 58.99 126.54C63.9 130.37 67.55 133.53 83.03 138C72.9 139.87 63.52 139.29 53.06 136.62C45.67 132.45 34.05 123.51 30.1 111.45C24.12 93.15 40.62 65.8 48.59 55.26C59.54 40.68 41.83 24.9 28.79 42.52C21.97 51.7 10.04 77.69 14.19 96.96C16.61 107.89 19.84 115.86 32.65 126.8C30.27 125.4 27.97 123.81 25.73 122.03C-4.02 94.32 -0.57 51.47 20.22 28.5Z" />
	<path id="Layer" class="shp2" d="M121.51 115.98C120.68 117.03 119.8 118.03 118.92 119.03C118.88 119.08 118.79 119.09 118.75 119.14C118.67 119.24 118.54 119.3 118.46 119.4L118.38 119.5C117.77 120.07 117.12 120.68 116.36 121.22C113.7 123.24 110.94 124.78 108.03 125.79C98.68 129.07 88.28 127.05 80.13 119.35C68.74 108.67 69.76 91.47 78.85 80.04C90.34 63 110.08 39.23 82.74 17.94C77.83 14.11 74.18 10.95 58.7 6.47C68.83 4.61 78.21 5.19 88.66 7.86C96.06 12.03 107.68 20.96 111.63 33.03C117.61 51.33 101.11 78.68 93.14 89.21C82.19 103.79 99.9 119.57 112.94 101.96C119.76 92.77 131.69 66.79 127.54 47.51C125.12 36.58 121.89 28.62 109.08 17.67C111.46 19.08 113.76 20.66 116 22.44C145.75 50.16 142.3 93.01 121.51 115.98Z" />
</svg>